<?xml version="1.0" encoding="UTF-8"?>
<svg xmlns="http://www.w3.org/2000/svg" xmlns:xlink="http://www.w3.org/1999/xlink" width="224.87999pt" height="225pt" viewBox="0 0 224.87999 225" version="1.2">
<defs>
<clipPath id="clip1">
  <path d="M 25 7.1875 L 200 7.1875 L 200 217.824219 L 25 217.824219 Z M 25 7.1875 "/>
</clipPath>
</defs>
<g id="surface1">
<g clip-path="url(#clip1)" clip-rule="nonzero">
<path style=" stroke:none;fill-rule:nonzero;fill:rgb(85.099792%,1.568604%,16.079712%);fill-opacity:1;" d="M 199.207031 98.863281 C 198.359375 96.589844 196.1875 95.082031 193.757812 95.082031 L 123.625 95.082031 L 164.078125 16.425781 C 165.351562 13.953125 164.695312 10.925781 162.503906 9.207031 C 161.449219 8.371094 160.175781 7.960938 158.910156 7.960938 C 157.558594 7.960938 156.203125 8.433594 155.117188 9.371094 L 112.445312 46.222656 L 27.339844 119.722656 C 25.503906 121.308594 24.839844 123.871094 25.6875 126.140625 C 26.535156 128.414062 28.703125 129.929688 31.132812 129.929688 L 101.265625 129.929688 L 60.8125 208.582031 C 59.539062 211.054688 60.195312 214.082031 62.382812 215.800781 C 63.441406 216.636719 64.714844 217.050781 65.980469 217.050781 C 67.332031 217.050781 68.6875 216.574219 69.773438 215.640625 L 112.445312 178.785156 L 197.550781 105.285156 C 199.394531 103.699219 200.050781 101.136719 199.207031 98.863281 Z M 199.207031 98.863281 "/>
</g>
</g>
</svg>
